<?xml version="1.0" standalone="no"?>
<!DOCTYPE svg PUBLIC "-//W3C//DTD SVG 20010904//EN"
 "http://www.w3.org/TR/2001/REC-SVG-20010904/DTD/svg10.dtd">
<svg version="1.0" xmlns="http://www.w3.org/2000/svg"
 width="700.000000pt" height="700.000000pt" viewBox="0 0 700.000000 700.000000"
 preserveAspectRatio="xMidYMid meet">
<metadata>
Created by potrace 1.14, written by Peter Selinger 2001-2017
</metadata>
<g transform="translate(0.000000,700.000000) scale(0.100000,-0.100000)"
fill="#000000" stroke="none">
<path d="M4655 6895 c-216 -30 -437 -93 -620 -179 -127 -60 -300 -175 -394
-264 -60 -57 -79 -69 -104 -68 -33 1 -30 5 -86 -114 -16 -36 -52 -89 -79 -117
-39 -43 -54 -53 -81 -53 -18 0 -41 -5 -51 -10 -18 -10 -23 -24 -35 -114 -3
-21 -26 -74 -52 -117 -39 -67 -51 -79 -73 -79 -45 0 -59 -19 -62 -83 l-3 -58
-645 -265 c-837 -344 -771 -314 -832 -377 -27 -27 -48 -52 -48 -57 0 -5 -11
-33 -24 -62 -14 -30 -34 -76 -45 -104 -11 -29 -29 -71 -39 -95 -11 -24 -55
-127 -97 -229 -43 -102 -90 -214 -105 -250 -79 -184 -367 -876 -395 -950 -27
-70 -33 -97 -30 -150 2 -69 4 -72 186 -520 44 -107 98 -240 121 -295 22 -55
46 -113 54 -130 12 -26 72 -172 219 -535 140 -345 153 -372 209 -423 43 -39
45 -40 432 -202 192 -80 363 -151 379 -159 17 -8 125 -54 240 -101 116 -47
224 -92 240 -100 86 -39 495 -204 525 -212 40 -11 122 -9 165 5 45 14 359 143
367 151 4 3 -25 60 -64 126 -39 66 -140 248 -226 405 -85 157 -187 337 -226
400 -40 63 -80 138 -91 165 -61 164 -141 298 -237 401 -95 100 -107 96 -33
-12 62 -92 99 -155 151 -266 l23 -47 -52 33 c-57 36 -116 54 -168 51 -24 -1
-33 -6 -31 -16 12 -49 15 -71 14 -130 -1 -36 -3 -78 -6 -95 -16 -87 -21 -153
-21 -279 0 -131 2 -146 31 -228 18 -48 30 -87 28 -87 -2 0 -21 24 -43 53 -71
93 -97 184 -116 402 -10 116 -25 197 -44 241 -21 47 -31 56 -51 44 -11 -7 -8
-18 13 -62 30 -63 43 -111 52 -193 3 -33 8 -73 10 -90 2 -16 7 -55 10 -86 14
-141 54 -239 130 -327 26 -28 45 -52 43 -52 -2 0 -37 9 -78 21 -133 36 -220
101 -291 215 -81 131 -117 180 -149 201 -18 13 -38 23 -44 23 -6 0 -26 -22
-44 -49 -77 -113 -173 -182 -261 -187 -94 -5 -198 70 -280 204 -21 34 -54 79
-72 100 -51 54 -77 101 -94 168 -14 55 -14 160 -1 223 8 34 55 182 66 206 5
11 26 58 46 105 20 47 59 139 87 205 l51 120 3 238 c3 268 -2 246 95 389 150
220 405 477 570 574 37 22 29 25 -17 7 -6 -2 -19 16 -30 39 -10 24 -47 73 -83
110 -41 43 -63 73 -60 85 2 10 36 38 76 62 72 42 88 60 41 43 -33 -11 -59 -4
-59 17 0 9 -20 46 -45 81 -40 57 -44 66 -32 84 8 12 46 37 86 58 40 20 75 38
77 41 3 3 -21 3 -54 1 l-60 -3 -35 71 c-19 39 -32 78 -30 87 2 9 24 30 47 46
36 25 41 31 29 40 -15 11 -15 46 2 122 5 24 3 40 -10 59 -17 26 -16 27 18 63
19 20 43 54 54 76 10 22 35 69 55 105 20 36 42 86 49 113 12 49 46 87 78 87 9
0 37 20 61 46 50 51 177 141 186 132 10 -10 -26 -57 -49 -64 -76 -24 -102 -83
-73 -169 18 -51 17 -63 -10 -158 -3 -9 -19 -24 -35 -32 -33 -17 -59 -62 -59
-100 0 -14 9 -45 20 -68 21 -43 21 -53 4 -227 -1 -14 -2 -35 -3 -47 -1 -13
-13 -29 -31 -39 -36 -22 -61 -71 -53 -105 5 -21 35 -65 83 -121 8 -10 15 -33
16 -50 8 -181 9 -175 -20 -213 -33 -43 -37 -96 -9 -127 27 -30 99 -78 117 -78
17 0 21 18 8 36 -4 6 -28 25 -54 43 -34 23 -48 39 -48 55 0 30 60 85 168 155
45 30 82 55 82 56 0 2 -43 -7 -95 -20 -52 -12 -96 -21 -96 -19 -5 15 -7 32 -8
93 -1 68 -2 71 -51 129 -27 33 -50 69 -50 80 0 26 32 51 114 88 36 16 66 32
66 37 0 4 -23 7 -51 7 -27 0 -48 3 -45 8 3 6 18 172 19 218 0 7 -10 33 -22 59
-12 26 -19 55 -16 66 9 26 61 63 115 82 l45 15 -33 7 c-19 5 -31 13 -29 19 3
6 10 37 16 68 10 48 10 61 -3 80 -39 60 -16 121 48 134 32 6 36 12 100 153 43
98 65 159 64 182 -3 80 5 89 84 98 3 1 27 36 52 79 32 55 47 92 51 131 4 30
11 63 16 73 11 21 49 38 84 38 45 0 146 140 188 263 5 12 17 17 44 17 33 0 45
7 88 51 257 266 730 442 1190 443 282 0 522 -46 768 -148 348 -144 666 -409
885 -738 25 -38 47 -68 49 -68 9 0 -105 210 -153 282 -255 386 -607 639 -1039
744 -55 13 -120 27 -145 30 -25 3 -67 10 -95 14 -77 12 -389 9 -490 -5z"/>
<path d="M4980 6423 c-147 -16 -376 -76 -525 -138 -271 -112 -555 -321 -720
-530 -22 -27 -45 -55 -50 -61 -20 -21 -98 -145 -94 -148 2 -2 26 -7 53 -10
176 -24 348 -81 549 -181 360 -181 653 -460 834 -795 73 -134 146 -334 168
-460 15 -83 23 -135 21 -137 -2 -2 -22 34 -46 80 -76 143 -159 273 -263 412
-85 112 -98 127 -222 250 -284 286 -585 444 -930 490 -47 7 -271 7 -300 1 -11
-3 -23 -5 -27 -5 -10 -1 -47 -128 -64 -216 -24 -128 -31 -230 -28 -390 3 -167
5 -199 19 -273 3 -15 9 -52 15 -82 19 -103 36 -171 71 -279 l22 -67 -33 -88
c-17 -48 -30 -89 -28 -91 1 -2 40 -13 85 -24 l82 -21 90 73 c175 142 309 198
487 203 129 4 217 -15 324 -72 71 -37 178 -117 186 -139 16 -41 -142 -198
-251 -250 -152 -73 -268 -91 -573 -91 -122 1 -222 -2 -222 -6 0 -5 11 -9 25
-9 14 -1 28 -2 33 -3 6 -2 124 -18 147 -21 6 0 42 -4 80 -8 39 -4 105 -9 147
-12 l77 -5 93 -68 c408 -302 887 -516 1380 -616 42 -9 94 -18 115 -21 21 -3
47 -8 59 -10 11 -3 43 -7 70 -10 27 -3 60 -8 74 -11 29 -5 36 7 121 211 98
234 108 282 84 373 -9 37 -183 474 -225 567 -5 11 -62 148 -125 305 -64 157
-122 299 -130 315 -7 17 -23 55 -35 85 -12 30 -28 69 -35 85 -8 17 -44 104
-81 195 -83 206 -93 226 -140 274 -45 46 -52 49 -574 268 -796 334 -905 380
-914 388 -14 13 249 270 354 347 199 145 362 223 577 277 144 36 259 50 413
49 115 0 384 -32 410 -48 4 -2 18 -6 32 -9 179 -32 496 -164 713 -295 36 -22
65 -37 64 -33 -1 13 -132 115 -240 188 -214 143 -462 242 -694 279 -124 19
-168 23 -310 22 -88 0 -176 -2 -195 -4z"/>
<path d="M3090 6020 c-8 -4 -89 -38 -180 -75 -91 -36 -178 -72 -195 -80 -16
-7 -66 -27 -110 -45 -44 -18 -93 -38 -110 -45 -16 -7 -91 -38 -165 -68 -292
-119 -798 -327 -842 -347 -90 -40 -188 -127 -255 -227 -19 -28 -69 -132 -110
-230 -114 -271 -253 -601 -278 -663 -31 -77 -254 -609 -270 -645 -147 -333
-168 -436 -132 -626 9 -45 32 -107 132 -349 53 -129 126 -307 162 -395 36 -88
71 -173 78 -190 7 -16 27 -66 45 -110 17 -44 37 -93 44 -110 7 -16 37 -88 66
-160 28 -71 56 -139 61 -150 5 -11 40 -96 78 -188 81 -196 116 -258 190 -334
96 -98 104 -102 706 -353 187 -77 354 -147 372 -155 17 -8 34 -15 37 -15 3 0
29 -11 58 -25 29 -13 109 -47 178 -76 203 -83 243 -100 285 -119 118 -52 307
-124 355 -136 84 -19 227 -16 306 8 37 11 391 153 788 315 397 162 786 322
866 355 80 32 173 77 207 99 102 67 203 187 246 294 8 22 73 175 142 340 70
165 205 489 302 720 96 231 183 438 193 460 89 199 111 288 106 425 -3 114
-14 148 -159 501 -100 243 -183 445 -414 1009 -201 492 -204 499 -297 590 -99
97 -111 104 -486 260 -135 56 -258 108 -275 115 -16 7 -166 70 -332 139 l-302
126 -43 -39 c-23 -22 -40 -42 -38 -44 3 -2 73 -32 155 -66 83 -34 164 -68 180
-76 17 -7 165 -70 330 -138 662 -276 650 -270 735 -356 67 -68 96 -121 197
-371 172 -419 331 -809 455 -1110 72 -173 141 -346 155 -385 33 -93 41 -218
20 -301 -13 -50 -135 -355 -236 -589 -10 -22 -26 -60 -36 -85 -10 -25 -28 -69
-41 -98 -13 -29 -24 -55 -24 -57 0 -3 -9 -24 -19 -48 -11 -23 -83 -195 -161
-382 -78 -187 -148 -353 -155 -370 -7 -16 -28 -64 -45 -105 -32 -75 -102 -182
-137 -210 -99 -80 -81 -71 -582 -276 -234 -96 -435 -178 -446 -183 -24 -11
-147 -62 -490 -201 -137 -56 -268 -110 -290 -120 -142 -64 -328 -64 -467 -1
-24 11 -223 95 -443 186 -423 177 -690 289 -740 310 -16 7 -70 29 -120 50 -49
20 -108 45 -130 55 -22 9 -91 39 -153 65 -212 89 -292 172 -382 395 -12 30
-28 69 -35 85 -8 17 -28 66 -45 110 -17 44 -38 94 -45 110 -7 17 -38 91 -68
165 -208 510 -261 638 -272 665 -8 17 -48 116 -90 220 -42 105 -83 204 -90
220 -44 97 -58 236 -36 337 10 43 39 125 61 173 9 19 107 254 222 530 27 66
56 134 63 150 7 17 25 59 40 95 15 36 33 79 40 95 7 17 52 125 100 240 254
607 230 560 326 656 86 86 51 68 639 309 389 159 711 291 880 361 136 56 146
62 169 100 35 63 36 109 1 89z"/>
<path d="M2635 3117 c-193 -165 -210 -188 -209 -272 1 -51 28 -145 39 -134 2
2 6 19 8 38 6 35 20 51 47 51 23 0 77 36 95 63 8 13 26 71 40 128 13 57 28
119 34 137 5 17 7 32 3 32 -4 0 -29 -19 -57 -43z"/>
<path d="M2001 1852 c-16 -63 -58 -116 -107 -134 -39 -14 -42 -23 -14 -38 28
-15 55 -5 91 32 35 38 52 88 47 148 l-3 45 -14 -53z"/>
</g>
</svg>
